<?xml version="1.0" standalone="no"?>
<!DOCTYPE svg PUBLIC "-//W3C//DTD SVG 20010904//EN"
 "http://www.w3.org/TR/2001/REC-SVG-20010904/DTD/svg10.dtd">
<svg version="1.0" xmlns="http://www.w3.org/2000/svg"
 width="300.000000pt" height="300.000000pt" viewBox="0 0 300.000000 300.000000"
 preserveAspectRatio="xMidYMid meet">
<metadata>
Created by potrace 1.10, written by Peter Selinger 2001-2011
</metadata>
<g transform="translate(0.000000,300.000000) scale(0.100000,-0.100000)"
fill="#000000" stroke="none">
<path d="M1171 2154 c-122 -361 -219 -659 -216 -663 4 -3 105 -10 226 -15 173
-8 219 -12 219 -23 0 -8 -86 -273 -191 -591 -196 -590 -220 -665 -216 -668 1
-1 260 365 575 814 l573 817 -153 8 c-84 4 -208 11 -275 15 l-122 7 260 450
c143 248 267 462 275 478 l15 27 -374 0 -374 0 -222 -656z"/>
<path d="M1041 2665 c-330 -120 -605 -398 -725 -733 -85 -240 -89 -548 -10
-787 85 -258 267 -496 490 -642 47 -30 87 -53 88 -52 6 7 46 133 46 144 0 6
-30 30 -66 54 -37 24 -101 78 -143 120 -270 267 -375 652 -281 1026 26 100
113 279 179 366 105 138 261 262 418 330 l72 32 30 89 c35 105 39 103 -98 53z"/>
<path d="M2136 2444 l-37 -66 82 -76 c329 -305 434 -767 269 -1175 -157 -385
-519 -641 -938 -664 l-114 -6 -50 -71 -49 -71 58 -8 c74 -11 235 -2 341 18 92
18 230 63 307 102 178 90 375 264 481 428 289 445 260 1019 -74 1436 -56 70
-214 219 -231 219 -4 0 -24 -30 -45 -66z"/>
</g>
</svg>
